<svg width="84" height="84" viewBox="0 0 84 84" fill="none" xmlns="http://www.w3.org/2000/svg">
<path d="M70.8333 8.33333H62.5V4.16667C62.5 3.0616 62.061 2.00179 61.2796 1.22039C60.4982 0.438987 59.4384 0 58.3333 0C57.2283 0 56.1685 0.438987 55.3871 1.22039C54.6057 2.00179 54.1667 3.0616 54.1667 4.16667V8.33333H29.1667V4.16667C29.1667 3.0616 28.7277 2.00179 27.9463 1.22039C27.1649 0.438987 26.1051 0 25 0C23.8949 0 22.8351 0.438987 22.0537 1.22039C21.2723 2.00179 20.8333 3.0616 20.8333 4.16667V8.33333H12.5C9.1848 8.33333 6.00537 9.6503 3.66117 11.9945C1.31696 14.3387 0 17.5181 0 20.8333V70.8333C0 74.1485 1.31696 77.328 3.66117 79.6722C6.00537 82.0164 9.1848 83.3333 12.5 83.3333H70.8333C74.1486 83.3333 77.328 82.0164 79.6722 79.6722C82.0164 77.328 83.3334 74.1485 83.3334 70.8333V20.8333C83.3334 17.5181 82.0164 14.3387 79.6722 11.9945C77.328 9.6503 74.1486 8.33333 70.8333 8.33333ZM75 70.8333C75 71.9384 74.561 72.9982 73.7796 73.7796C72.9982 74.561 71.9384 75 70.8333 75H12.5C11.3949 75 10.3351 74.561 9.55372 73.7796C8.77232 72.9982 8.33333 71.9384 8.33333 70.8333V41.6667H75V70.8333ZM75 33.3333H8.33333V20.8333C8.33333 19.7283 8.77232 18.6685 9.55372 17.8871C10.3351 17.1057 11.3949 16.6667 12.5 16.6667H20.8333V20.8333C20.8333 21.9384 21.2723 22.9982 22.0537 23.7796C22.8351 24.561 23.8949 25 25 25C26.1051 25 27.1649 24.561 27.9463 23.7796C28.7277 22.9982 29.1667 21.9384 29.1667 20.8333V16.6667H54.1667V20.8333C54.1667 21.9384 54.6057 22.9982 55.3871 23.7796C56.1685 24.561 57.2283 25 58.3333 25C59.4384 25 60.4982 24.561 61.2796 23.7796C62.061 22.9982 62.5 21.9384 62.5 20.8333V16.6667H70.8333C71.9384 16.6667 72.9982 17.1057 73.7796 17.8871C74.561 18.6685 75 19.7283 75 20.8333V33.3333Z" fill="black"/>
</svg>
