<svg width="76" height="77" viewBox="0 0 76 77" fill="none" xmlns="http://www.w3.org/2000/svg">
<path d="M68.4954 26.1291C68.4954 28.8534 68.0114 31.4862 67.0433 34.0275C66.0751 36.5688 64.7326 38.7949 63.0155 40.706L38.4657 67.7859L35.0682 64.0655L59.618 36.9855C62.3214 34.058 63.6731 30.4392 63.6731 26.1291C63.6731 22.5103 62.6046 19.5116 60.4674 17.133C58.3302 14.7543 55.636 13.565 52.3846 13.565C48.6583 13.565 45.3703 15.0898 42.5208 18.1393L15.505 47.9639C13.3496 50.3629 12.2719 53.0668 12.2719 56.0757C12.2719 58.3933 12.9477 60.2942 14.2994 61.7783C15.6511 63.2625 17.3682 64.0045 19.4505 64.0045C22.1905 64.0045 24.6381 62.805 26.7936 60.406L47.4527 37.7174C49.3889 35.4811 50.357 33.509 50.357 31.8013C50.357 30.9474 50.0648 30.2765 49.4803 29.7886C48.8957 29.3007 48.2016 29.0567 47.3979 29.0567C45.6443 29.0567 44.0734 29.8699 42.6852 31.4963L24.0536 51.9893L20.7109 48.2688L39.2877 27.7759C41.6988 25.0923 44.4022 23.7505 47.3979 23.7505C49.5168 23.7505 51.3434 24.5027 52.8778 26.0072C54.4121 27.5116 55.1793 29.4226 55.1793 31.7403C55.1793 34.9118 53.7363 38.1444 50.8502 41.4379L30.1911 64.1265C27.1224 67.542 23.5422 69.2497 19.4505 69.2497C16.053 69.2497 13.2126 67.9994 10.9293 65.4988C8.64604 62.9982 7.50439 59.8571 7.50439 56.0757C7.50439 51.603 9.03876 47.6589 12.1075 44.2434L39.1233 14.4189C42.9227 10.3122 47.3431 8.25879 52.3846 8.25879C56.9511 8.25879 60.7779 9.96654 63.8649 13.382C66.9519 16.7975 68.4954 21.0466 68.4954 26.1291Z" fill="#222222"/>
</svg>
