<svg width="72" height="72" viewBox="0 0 72 72" fill="none" xmlns="http://www.w3.org/2000/svg">
<g clip-path="url(#clip0)">
<path d="M51.468 33.7902L34.5269 50.7313C31.2713 53.9869 25.9974 53.9869 22.7418 50.7313C19.4861 47.4756 19.4861 42.2018 22.7418 38.9462L41.156 20.5319C42.1328 19.5552 43.4575 19.0064 44.8389 19.0064C46.2202 19.0064 47.545 19.5552 48.5217 20.5319C49.4985 21.5087 50.0472 22.8334 50.0472 24.2148C50.0472 25.5961 49.4985 26.9209 48.5217 27.8976L33.0538 43.3656C32.2435 44.1758 30.9177 44.1758 30.1075 43.3656C29.2973 42.5553 29.2973 41.2295 30.1075 40.4193L44.1023 26.4245L41.8926 24.2148L27.8978 38.2096C26.921 39.1863 26.3723 40.5111 26.3723 41.8924C26.3723 43.2738 26.921 44.5985 27.8978 45.5753C28.8745 46.552 30.1993 47.1008 31.5806 47.1008C32.962 47.1008 34.2867 46.552 35.2635 45.5753L50.7314 30.1073C53.9871 26.8517 53.9871 21.5779 50.7314 18.3222C47.4758 15.0666 42.2019 15.0666 38.9463 18.3222L20.5321 36.7365C16.0537 41.2148 16.0537 48.4626 20.5321 52.941C25.0104 57.4193 32.2583 57.4193 36.7366 52.941L53.6777 35.9999L51.468 33.7902Z" fill="black"/>
</g>
<defs>
<clipPath id="clip0">
<rect width="50" height="50" fill="white" transform="translate(36 0.644531) rotate(45)"/>
</clipPath>
</defs>
</svg>
