<svg width="75" height="75" viewBox="0 0 75 75" fill="none" xmlns="http://www.w3.org/2000/svg">
<path d="M66.999 62.25L66.999 62.2571C67.0015 62.8837 66.8732 63.504 66.6222 64.0781C66.3711 64.6523 66.0029 65.1677 65.5412 65.5913C65.0794 66.0149 64.5343 66.3374 63.9407 66.5382C63.3517 66.7374 62.7279 66.8123 62.1087 66.7584C52.7707 65.7411 43.8011 62.5489 35.9199 57.438L35.9063 57.4292C28.5726 52.7691 22.3549 46.5514 17.6948 39.2177L17.6865 39.2048C12.5573 31.2871 9.36427 22.2731 8.36577 12.8924C8.31168 12.2743 8.38596 11.6517 8.58402 11.0637C8.78343 10.4716 9.10393 9.92755 9.52512 9.46615C9.94631 9.00474 10.459 8.6361 11.0304 8.38367C11.6016 8.13137 12.2191 8.00071 12.8435 8H22.2177L22.235 7.99992C23.3269 7.98917 24.3855 8.37584 25.2134 9.08786C26.0395 9.79826 26.5797 10.7842 26.7339 11.8625C27.1471 14.9906 27.9126 18.0619 29.0157 21.0181L29.0172 21.022C29.3199 21.8273 29.3854 22.7026 29.2059 23.544C29.0268 24.384 28.611 25.1551 28.0078 25.7664C28.0067 25.7674 28.0057 25.7685 28.0047 25.7695L24.0428 29.7313C23.4858 30.2884 23.3696 31.1489 23.759 31.8338C28.3633 39.9312 35.0678 46.6357 43.1652 51.24C43.85 51.6294 44.7106 51.5132 45.2677 50.9562L49.2295 46.9943C49.2305 46.9933 49.2316 46.9923 49.2326 46.9912C49.8439 46.388 50.615 45.9722 51.455 45.7931C52.2964 45.6136 53.1717 45.6791 53.977 45.9818L53.9809 45.9833C56.9371 47.0864 60.0085 47.8519 63.1365 48.2651C64.2268 48.4206 65.2222 48.9706 65.9342 49.811C66.6478 50.6531 67.0269 51.7281 66.9995 52.8316C66.9992 52.8461 66.999 52.8605 66.999 52.875L66.999 62.25ZM52.5326 6.14716C56.284 7.44244 59.7195 9.57634 62.5631 12.4164C65.4067 15.2564 67.5449 18.6891 68.8449 22.4389L52.5326 6.14716Z" stroke="#4FCE5D" stroke-width="3.5" stroke-linecap="round" stroke-linejoin="round"/>
</svg>
