<svg width="125" height="126" viewBox="0 0 125 126" fill="none" xmlns="http://www.w3.org/2000/svg">
<path d="M62.5 62.637C55.5933 62.637 48.9695 59.8934 44.0858 55.0096C39.202 50.1259 36.4583 43.5021 36.4583 36.5954C36.4583 29.6887 39.202 23.0649 44.0858 18.1811C48.9695 13.2974 55.5933 10.5537 62.5 10.5537C69.4067 10.5537 76.0305 13.2974 80.9142 18.1811C85.798 23.0649 88.5417 29.6887 88.5417 36.5954C88.5417 43.5021 85.798 50.1259 80.9142 55.0096C76.0305 59.8934 69.4067 62.637 62.5 62.637ZM62.5 52.2204C64.5519 52.2204 66.5837 51.8162 68.4794 51.031C70.3751 50.2458 72.0976 49.0948 73.5485 47.6439C74.9995 46.193 76.1504 44.4705 76.9356 42.5748C77.7209 40.6791 78.125 38.6473 78.125 36.5954C78.125 34.5435 77.7209 32.5117 76.9356 30.6159C76.1504 28.7202 74.9995 26.9978 73.5485 25.5468C72.0976 24.0959 70.3751 22.945 68.4794 22.1598C66.5837 21.3745 64.5519 20.9704 62.5 20.9704C58.356 20.9704 54.3817 22.6166 51.4515 25.5468C48.5212 28.4771 46.875 32.4514 46.875 36.5954C46.875 40.7394 48.5212 44.7137 51.4515 47.6439C54.3817 50.5742 58.356 52.2204 62.5 52.2204ZM109.375 109.512C109.375 110.893 108.826 112.218 107.85 113.195C106.873 114.172 105.548 114.72 104.167 114.72C102.785 114.72 101.461 114.172 100.484 113.195C99.5071 112.218 98.9583 110.893 98.9583 109.512V99.0954C98.9583 94.9514 97.3121 90.9771 94.3819 88.0468C91.4516 85.1166 87.4773 83.4704 83.3333 83.4704H41.6667C37.5227 83.4704 33.5484 85.1166 30.6181 88.0468C27.6879 90.9771 26.0417 94.9514 26.0417 99.0954V109.512C26.0417 110.893 25.4929 112.218 24.5162 113.195C23.5394 114.172 22.2147 114.72 20.8333 114.72C19.452 114.72 18.1272 114.172 17.1505 113.195C16.1737 112.218 15.625 110.893 15.625 109.512V99.0954C15.625 92.1887 18.3687 85.5649 23.2524 80.6811C28.1362 75.7974 34.76 73.0537 41.6667 73.0537H83.3333C90.24 73.0537 96.8638 75.7974 101.748 80.6811C106.631 85.5649 109.375 92.1887 109.375 99.0954V109.512Z" fill="#888992"/>
</svg>
