<svg width="76" height="77" viewBox="0 0 76 77" fill="none" xmlns="http://www.w3.org/2000/svg">
<path d="M67.8489 35.814L14.0156 10.4807C13.4735 10.2242 12.8698 10.1271 12.2747 10.2006C11.6796 10.2742 11.1176 10.5153 10.6543 10.896C10.191 11.2767 9.84543 11.7812 9.65787 12.3507C9.4703 12.9202 9.44846 13.5314 9.5949 14.1128L15.7351 38.6798L9.5949 63.2468C9.44709 63.8285 9.46797 64.4403 9.6551 65.0105C9.84224 65.5808 10.1879 66.086 10.6516 66.467C11.1153 66.848 11.678 67.0891 12.2737 67.162C12.8694 67.235 13.4736 67.1368 14.0156 66.879L67.8489 41.5457C68.3929 41.2899 68.8529 40.8846 69.1751 40.3772C69.4973 39.8697 69.6684 39.281 69.6684 38.6798C69.6684 38.0787 69.4973 37.49 69.1751 36.9825C68.8529 36.475 68.3929 36.0697 67.8489 35.814ZM17.3564 58.3037L20.0132 47.6732L37.9999 38.6798L20.0132 29.6865L17.3564 19.056L59.0614 38.6798L17.3564 58.3037Z" fill="white"/>
</svg>
