<svg width="75" height="75" viewBox="0 0 75 75" fill="none" xmlns="http://www.w3.org/2000/svg">
<path d="M44.5312 0H30.4688C13.6414 0 0 13.6414 0 30.4688C0 41.3728 5.77222 50.8667 14.383 56.25H14.0625V75L35.1562 60.9375H44.5312C61.3586 60.9375 75 47.2961 75 30.4688C75 13.6414 61.3586 0 44.5312 0ZM44.5312 51.5625H35.1562L23.4375 58.5938V50.2717C15.2619 47.3648 9.375 39.6378 9.375 30.4688C9.375 18.8187 18.8187 9.375 30.4688 9.375H44.5312C56.1812 9.375 65.625 18.8187 65.625 30.4688C65.625 42.1188 56.1813 51.5625 44.5312 51.5625Z" fill="#4FCE5D"/>
</svg>
