<svg width="50" height="50" viewBox="0 0 50 50" fill="none" xmlns="http://www.w3.org/2000/svg">
<path fill-rule="evenodd" clip-rule="evenodd" d="M25 46.875C30.8016 46.875 36.3656 44.5703 40.468 40.468C44.5703 36.3656 46.875 30.8016 46.875 25C46.875 19.1984 44.5703 13.6344 40.468 9.53204C36.3656 5.42968 30.8016 3.125 25 3.125C19.1984 3.125 13.6344 5.42968 9.53204 9.53204C5.42968 13.6344 3.125 19.1984 3.125 25C3.125 30.8016 5.42968 36.3656 9.53204 40.468C13.6344 44.5703 19.1984 46.875 25 46.875ZM25 50C31.6304 50 37.9893 47.3661 42.6777 42.6777C47.3661 37.9893 50 31.6304 50 25C50 18.3696 47.3661 12.0107 42.6777 7.32233C37.9893 2.63392 31.6304 0 25 0C18.3696 0 12.0107 2.63392 7.32233 7.32233C2.63392 12.0107 0 18.3696 0 25C0 31.6304 2.63392 37.9893 7.32233 42.6777C12.0107 47.3661 18.3696 50 25 50Z" fill="black"/>
<path fill-rule="evenodd" clip-rule="evenodd" d="M23.8936 35.4813C23.7481 35.3361 23.6327 35.1637 23.5539 34.9739C23.4751 34.784 23.4346 34.5805 23.4346 34.375C23.4346 34.1695 23.4751 33.966 23.5539 33.7762C23.6327 33.5863 23.7481 33.4139 23.8936 33.2688L32.1655 25L23.8936 16.7313C23.7483 16.586 23.6331 16.4135 23.5545 16.2237C23.4759 16.0339 23.4354 15.8305 23.4354 15.625C23.4354 15.4196 23.4759 15.2161 23.5545 15.0263C23.6331 14.8365 23.7483 14.664 23.8936 14.5188C24.0389 14.3735 24.2114 14.2583 24.4012 14.1796C24.591 14.101 24.7944 14.0605 24.9999 14.0605C25.2053 14.0605 25.4088 14.101 25.5986 14.1796C25.7884 14.2583 25.9608 14.3735 26.1061 14.5188L35.4811 23.8938C35.6266 24.0389 35.7421 24.2113 35.8208 24.4012C35.8996 24.591 35.9402 24.7945 35.9402 25C35.9402 25.2055 35.8996 25.409 35.8208 25.5989C35.7421 25.7887 35.6266 25.9611 35.4811 26.1063L26.1061 35.4813C25.961 35.6268 25.7885 35.7422 25.5987 35.821C25.4089 35.8998 25.2054 35.9403 24.9999 35.9403C24.7943 35.9403 24.5908 35.8998 24.401 35.821C24.2112 35.7422 24.0388 35.6268 23.8936 35.4813Z" fill="black"/>
<path fill-rule="evenodd" clip-rule="evenodd" d="M14.0625 25C14.0625 24.5856 14.2271 24.1882 14.5201 23.8951C14.8132 23.6021 15.2106 23.4375 15.625 23.4375H31.25C31.6644 23.4375 32.0618 23.6021 32.3549 23.8951C32.6479 24.1882 32.8125 24.5856 32.8125 25C32.8125 25.4144 32.6479 25.8118 32.3549 26.1049C32.0618 26.3979 31.6644 26.5625 31.25 26.5625H15.625C15.2106 26.5625 14.8132 26.3979 14.5201 26.1049C14.2271 25.8118 14.0625 25.4144 14.0625 25Z" fill="black"/>
</svg>
