<svg width="44" height="44" viewBox="0 0 44 44" fill="none" xmlns="http://www.w3.org/2000/svg">
<path d="M32.3493 21.5482C32.3493 20.8214 31.7676 20.2326 31.0506 20.2326H23.1031V12.2968V12.2966C23.1031 11.5673 22.5114 10.9758 21.7826 10.9758C21.0533 10.9758 20.4616 11.5673 20.4616 12.2966V21.5431C20.4616 22.2726 21.0533 22.8641 21.7826 22.8641H31.0514C31.7676 22.8641 32.3493 22.2751 32.3493 21.5482ZM36.3155 21.5399C36.3155 29.5662 29.8099 36.0729 21.7853 36.0729C13.7602 36.0729 7.25503 29.5662 7.25503 21.5399C7.25503 13.5136 13.7602 7.00697 21.7853 7.00697C29.8099 7.00697 36.3155 13.5136 36.3155 21.5399ZM38.9538 21.5399C38.9538 12.0577 31.2672 4.37109 21.7853 4.37109C12.3029 4.37109 4.61621 12.0577 4.61621 21.5399C4.61621 31.0221 12.3029 38.7087 21.7853 38.7087C31.2672 38.7087 38.9538 31.0221 38.9538 21.5399Z" fill="black" stroke="black"/>
</svg>
