<svg width="42" height="43" viewBox="0 0 42 43" fill="none" xmlns="http://www.w3.org/2000/svg">
<path d="M33.7454 30.6395C33.5988 30.8201 33.5066 31.0386 33.4793 31.2696C33.452 31.5006 33.4908 31.7346 33.5912 31.9444C33.6916 32.1542 33.8494 32.3312 34.0464 32.4548C34.2434 32.5785 34.4715 32.6437 34.7041 32.6429C34.8877 32.6435 35.0691 32.603 35.235 32.5243C35.4009 32.4456 35.5471 32.3308 35.6627 32.1882C38.0988 29.1306 39.4253 25.3369 39.4253 21.4275C39.4253 17.5181 38.0988 13.7244 35.6627 10.6668C35.5613 10.5406 35.4359 10.4356 35.2938 10.3579C35.1517 10.2803 34.9956 10.2315 34.8346 10.2144C34.6735 10.1972 34.5107 10.2121 34.3554 10.2581C34.2001 10.3041 34.0554 10.3804 33.9297 10.4825C33.6783 10.687 33.5179 10.9826 33.4834 11.3049C33.4488 11.6271 33.543 11.95 33.7454 12.2032C35.8398 14.8191 36.9809 18.0703 36.9809 21.4213C36.9809 24.7724 35.8398 28.0236 33.7454 30.6395ZM29.4927 15.8904C29.3935 15.7629 29.3203 15.6171 29.2774 15.4613C29.2345 15.3055 29.2226 15.1428 29.2426 14.9825C29.2626 14.8221 29.314 14.6673 29.3938 14.5268C29.4736 14.3863 29.5803 14.2628 29.7078 14.1636C29.8353 14.0643 29.9811 13.9911 30.1369 13.9482C30.2927 13.9053 30.4554 13.8935 30.6158 13.9135C30.7761 13.9334 30.931 13.9848 31.0715 14.0646C31.212 14.1444 31.3354 14.2512 31.4347 14.3787C33.0184 16.4057 33.8788 18.9042 33.8788 21.4767C33.8788 24.0491 33.0184 26.5476 31.4347 28.5746C31.3202 28.7234 31.1731 28.8439 31.0048 28.927C30.8365 29.0101 30.6514 29.0535 30.4637 29.054C30.2344 29.0534 30.0098 28.9887 29.8153 28.8672C29.6208 28.7457 29.4643 28.5722 29.3632 28.3663C29.2622 28.1604 29.2208 27.9304 29.2437 27.7023C29.2666 27.4741 29.3528 27.2569 29.4927 27.0751C30.7506 25.4731 31.4344 23.4951 31.4344 21.4582C31.4344 19.4213 30.7506 17.4433 29.4927 15.8413V15.8904ZM2.5634 17.8324V25.0103C2.56665 25.634 2.81671 26.2311 3.25892 26.671C3.70112 27.1109 4.29951 27.3578 4.92325 27.3578H8.42615L22.4378 34.0564C22.758 34.2023 23.1059 34.2777 23.4579 34.2776C23.8919 34.2694 24.3159 34.1464 24.687 33.9212C25.0244 33.7096 25.3028 33.4161 25.4962 33.0679C25.6896 32.7198 25.7918 32.3283 25.7932 31.93V10.9126C25.7896 10.5151 25.6862 10.1248 25.4925 9.77758C25.2987 9.43041 25.0208 9.1375 24.6843 8.92579C24.3477 8.71408 23.9634 8.59036 23.5665 8.56598C23.1697 8.54161 22.7731 8.61738 22.4132 8.78632L8.40157 15.4848H4.89867C4.27919 15.4913 3.68709 15.7411 3.25018 16.1803C2.81327 16.6195 2.5666 17.2129 2.5634 17.8324ZM9.93793 25.3544V17.4883L23.3596 11.0847V31.758L9.93793 25.3544ZM5.02158 17.9799H7.47976V24.9365H5.02158V17.9799Z" fill="#0B0B0C" stroke="#0B0B0C"/>
</svg>
