<svg width="238" height="215" viewBox="0 0 238 215" fill="none" xmlns="http://www.w3.org/2000/svg">
<path d="M114.398 34.0625H55.8278C47.5536 34.0625 40.8599 40.916 40.8599 49.282V89.6941C40.8599 97.682 46.9493 104.299 54.7122 104.914V116.021C54.7122 117.439 55.5489 118.762 56.8505 119.282C57.2688 119.471 57.7337 119.566 58.1985 119.566C59.1282 119.566 60.0114 119.188 60.6622 118.526L74.0032 104.961H108.634V110.113C108.634 118.526 115.374 125.38 123.649 125.38H164.09L177.431 138.945C178.082 139.607 179.011 139.985 179.895 139.985C180.359 139.985 180.778 139.89 181.243 139.701C182.544 139.134 183.381 137.858 183.381 136.44V125.285C191.097 124.671 197.233 118.101 197.233 110.066V69.6535C197.233 61.2402 190.493 54.3867 182.219 54.3867H129.413V49.2348C129.413 40.8688 122.672 34.0625 114.398 34.0625ZM72.5157 97.8711C71.586 97.8711 70.7028 98.2492 70.052 98.9109L61.6384 107.466V101.416C61.6384 99.4781 60.0579 97.8711 58.152 97.8711H55.8278C51.4118 97.8711 47.8325 94.2316 47.8325 89.7414V49.3293C47.8325 44.8391 51.4118 41.1996 55.8278 41.1996H114.398C118.814 41.1996 122.393 44.8391 122.393 49.3293V89.7414C122.393 94.2316 118.814 97.8711 114.398 97.8711H72.5157ZM182.172 61.5238C186.588 61.5238 190.214 65.1633 190.214 69.7008V110.113C190.214 114.603 186.635 118.29 182.172 118.29H179.848C177.942 118.29 176.362 119.897 176.362 121.835V127.885L167.948 119.33C167.297 118.668 166.414 118.29 165.484 118.29H123.602C119.186 118.29 115.56 114.65 115.56 110.113V104.914C123.277 104.299 129.366 97.7293 129.366 89.7414V61.5711H182.172V61.5238Z" fill="black"/>
<path d="M85.2061 83.7386C84.2764 83.7386 83.3932 84.1167 82.7424 84.7785C82.0916 85.4402 81.7197 86.3382 81.7197 87.2835C81.7197 88.2289 82.0916 89.1269 82.7424 89.7886C83.3932 90.4503 84.2764 90.8285 85.2061 90.8285C86.1357 90.8285 87.0189 90.4503 87.6697 89.7886C88.3205 89.1269 88.6924 88.2289 88.6924 87.2835C88.6924 86.3382 88.3205 85.4402 87.6697 84.7785C87.0189 84.1167 86.1357 83.7386 85.2061 83.7386Z" fill="black"/>
<path d="M85.1131 48.195C79.1631 48.195 74.2822 53.1106 74.2822 59.2079V59.4442C74.2822 61.3821 75.8627 62.9891 77.7686 62.9891C79.6744 62.9891 81.2549 61.3821 81.2549 59.4442V59.2079C81.2549 57.0809 82.9748 55.2848 85.1131 55.2848C87.2514 55.2848 88.9713 57.0337 88.9713 59.2079C88.9713 61.2876 88.1811 63.2255 86.74 64.6907C83.5326 67.952 81.7662 72.3004 81.7662 76.9325C81.7662 78.8704 83.3467 80.4774 85.2525 80.4774C87.1584 80.4774 88.7389 78.8704 88.7389 76.9325C88.7389 74.1911 89.7615 71.6387 91.6674 69.7008C94.41 66.9122 95.9439 63.1782 95.9439 59.2079C95.9439 53.1106 91.0631 48.195 85.1131 48.195Z" fill="black"/>
</svg>
