<svg width="112" height="113" viewBox="0 0 112 113" fill="none" xmlns="http://www.w3.org/2000/svg">
<path d="M56 56.3825C49.8116 56.3825 43.8767 53.9242 39.5008 49.5483C35.125 45.1725 32.6667 39.2375 32.6667 33.0492C32.6667 26.8608 35.125 20.9258 39.5008 16.55C43.8767 12.1741 49.8116 9.71582 56 9.71582C62.1884 9.71582 68.1233 12.1741 72.4992 16.55C76.875 20.9258 79.3333 26.8608 79.3333 33.0492C79.3333 39.2375 76.875 45.1725 72.4992 49.5483C68.1233 53.9242 62.1884 56.3825 56 56.3825ZM56 47.0492C57.8385 47.0492 59.659 46.687 61.3576 45.9835C63.0561 45.2799 64.5995 44.2487 65.8995 42.9487C67.1995 41.6486 68.2307 40.1053 68.9343 38.4067C69.6379 36.7082 70 34.8877 70 33.0492C70 31.2106 69.6379 29.3901 68.9343 27.6916C68.2307 25.993 67.1995 24.4497 65.8995 23.1497C64.5995 21.8496 63.0561 20.8184 61.3576 20.1148C59.659 19.4113 57.8385 19.0492 56 19.0492C52.287 19.0492 48.726 20.5242 46.1005 23.1497C43.475 25.7752 42 29.3361 42 33.0492C42 36.7622 43.475 40.3231 46.1005 42.9487C48.726 45.5742 52.287 47.0492 56 47.0492ZM98 98.3825C98 99.6202 97.5083 100.807 96.6332 101.682C95.758 102.557 94.571 103.049 93.3333 103.049C92.0957 103.049 90.9087 102.557 90.0335 101.682C89.1583 100.807 88.6667 99.6202 88.6667 98.3825V89.0492C88.6667 85.3361 87.1917 81.7752 84.5662 79.1497C81.9407 76.5242 78.3797 75.0492 74.6667 75.0492H37.3333C33.6203 75.0492 30.0593 76.5242 27.4338 79.1497C24.8083 81.7752 23.3333 85.3361 23.3333 89.0492V98.3825C23.3333 99.6202 22.8417 100.807 21.9665 101.682C21.0913 102.557 19.9043 103.049 18.6667 103.049C17.429 103.049 16.242 102.557 15.3668 101.682C14.4917 100.807 14 99.6202 14 98.3825V89.0492C14 82.8608 16.4583 76.9258 20.8342 72.55C25.21 68.1742 31.1449 65.7158 37.3333 65.7158H74.6667C80.855 65.7158 86.79 68.1742 91.1658 72.55C95.5417 76.9258 98 82.8608 98 89.0492V98.3825Z" fill="#888992"/>
</svg>
