<svg width="112" height="113" viewBox="0 0 112 113" fill="none" xmlns="http://www.w3.org/2000/svg">
<g clip-path="url(#clip0)">
<path fill-rule="evenodd" clip-rule="evenodd" d="M101.5 21.9258H10.5C9.57174 21.9258 8.6815 22.2945 8.02513 22.9509C7.36875 23.6073 7 24.4975 7 25.4258V88.4258C7 89.354 7.36875 90.2443 8.02513 90.9007C8.6815 91.557 9.57174 91.9258 10.5 91.9258H101.5C102.428 91.9258 103.318 91.557 103.975 90.9007C104.631 90.2443 105 89.354 105 88.4258V25.4258C105 24.4975 104.631 23.6073 103.975 22.9509C103.318 22.2945 102.428 21.9258 101.5 21.9258ZM10.5 14.9258C7.71523 14.9258 5.04451 16.032 3.07538 18.0012C1.10625 19.9703 0 22.641 0 25.4258L0 88.4258C0 91.2106 1.10625 93.8813 3.07538 95.8504C5.04451 97.8195 7.71523 98.9258 10.5 98.9258H101.5C104.285 98.9258 106.955 97.8195 108.925 95.8504C110.894 93.8813 112 91.2106 112 88.4258V25.4258C112 22.641 110.894 19.9703 108.925 18.0012C106.955 16.032 104.285 14.9258 101.5 14.9258H10.5Z" fill="#888992"/>
<path d="M74.5357 54.4475C75.0556 53.929 75.7253 53.5872 76.4502 53.4704C77.175 53.3536 77.9182 53.4676 78.5747 53.7965L105.014 67.4255V91.9255H7.01367V84.9255L25.5357 68.4475C26.1078 67.8774 26.8595 67.5228 27.6632 67.4437C28.467 67.3646 29.2734 67.5659 29.9457 68.0135L48.5657 80.4245L74.5357 54.4545V54.4475Z" fill="#888992"/>
<path fill-rule="evenodd" clip-rule="evenodd" d="M31.5137 49.9258C32.8926 49.9258 34.2579 49.6542 35.5318 49.1265C36.8058 48.5988 37.9633 47.8254 38.9383 46.8504C39.9133 45.8754 40.6867 44.7179 41.2144 43.444C41.7421 42.17 42.0137 40.8047 42.0137 39.4258C42.0137 38.0469 41.7421 36.6815 41.2144 35.4076C40.6867 34.1337 39.9133 32.9762 38.9383 32.0012C37.9633 31.0261 36.8058 30.2527 35.5318 29.725C34.2579 29.1974 32.8926 28.9258 31.5137 28.9258C28.7289 28.9258 26.0582 30.032 24.089 32.0012C22.1199 33.9703 21.0137 36.641 21.0137 39.4258C21.0137 42.2106 22.1199 44.8813 24.089 46.8504C26.0582 48.8195 28.7289 49.9258 31.5137 49.9258Z" fill="#888992"/>
</g>
<defs>
<clipPath id="clip0">
<rect width="112" height="112" fill="white" transform="translate(0 0.925781)"/>
</clipPath>
</defs>
</svg>
