<svg width="56" height="56" viewBox="0 0 56 56" fill="none" xmlns="http://www.w3.org/2000/svg">
<path d="M50.8796 23.4303H49.0001V23.3334H28.0001V32.6667H41.1869C39.2631 38.0999 34.0936 42.0001 28.0001 42.0001C20.2686 42.0001 14.0001 35.7316 14.0001 28.0001C14.0001 20.2686 20.2686 14.0001 28.0001 14.0001C31.5689 14.0001 34.8158 15.3464 37.2879 17.5456L43.8878 10.9457C39.7204 7.06191 34.1461 4.66675 28.0001 4.66675C15.1142 4.66675 4.66675 15.1142 4.66675 28.0001C4.66675 40.8859 15.1142 51.3334 28.0001 51.3334C40.8859 51.3334 51.3334 40.8859 51.3334 28.0001C51.3334 26.4356 51.1724 24.9084 50.8796 23.4303Z" fill="#FFC107"/>
<path d="M7.35693 17.1396L15.0231 22.7617C17.0974 17.6261 22.1211 14.0001 27.9999 14.0001C31.5688 14.0001 34.8156 15.3464 37.2878 17.5456L43.8876 10.9457C39.7203 7.06191 34.1459 4.66675 27.9999 4.66675C19.0376 4.66675 11.2653 9.72658 7.35693 17.1396Z" fill="#FF3D00"/>
<path d="M28 51.3334C34.027 51.3334 39.5034 49.0269 43.6439 45.2761L36.4222 39.1651C34.0008 41.0065 31.0421 42.0025 28 42.0001C21.931 42.0001 16.7779 38.1302 14.8365 32.7297L7.22754 38.5922C11.0892 46.1487 18.9315 51.3334 28 51.3334Z" fill="#4CAF50"/>
<path d="M50.8795 23.4301H49V23.3333H28V32.6666H41.1868C40.2666 35.2524 38.6089 37.512 36.4187 39.1661L36.4222 39.1638L43.6438 45.2748C43.1328 45.7391 51.3333 39.6666 51.3333 27.9999C51.3333 26.4354 51.1723 24.9083 50.8795 23.4301Z" fill="#1976D2"/>
</svg>
