<svg width="72" height="72" viewBox="0 0 72 72" fill="none" xmlns="http://www.w3.org/2000/svg">
<path fill-rule="evenodd" clip-rule="evenodd" d="M36.0001 12.002C31.1913 12.002 27.293 15.9003 27.293 20.7091C27.293 25.5179 31.1913 29.4162 36.0001 29.4162C40.8089 29.4162 44.7073 25.5179 44.7073 20.7091C44.7073 15.9003 40.8089 12.002 36.0001 12.002ZM21.293 20.7091C21.293 12.5866 27.8776 6.00195 36.0001 6.00195C44.1226 6.00195 50.7073 12.5866 50.7073 20.7091C50.7073 28.8316 44.1226 35.4162 36.0001 35.4162C27.8776 35.4162 21.293 28.8316 21.293 20.7091Z" fill="#888992"/>
<path fill-rule="evenodd" clip-rule="evenodd" d="M28.5535 46.1719C19.4111 46.1719 12 53.5829 12 62.7254V62.9987C12 64.6556 10.6569 65.9987 9 65.9987C7.34315 65.9987 6 64.6556 6 62.9987V62.7254C6 50.2692 16.0974 40.1719 28.5535 40.1719H43.4465C55.9027 40.1719 66 50.2692 66 62.7254V62.9987C66 64.6556 64.6569 65.9987 63 65.9987C61.3432 65.9987 60 64.6556 60 62.9987V62.7254C60 53.5829 52.589 46.1719 43.4465 46.1719H28.5535Z" fill="#888992"/>
</svg>
