<svg width="72" height="72" viewBox="0 0 72 72" fill="none" xmlns="http://www.w3.org/2000/svg">
<path fill-rule="evenodd" clip-rule="evenodd" d="M12.051 53.523C12.5181 53.9919 12.876 54.558 13.0992 55.181C13.3225 55.8041 13.4055 56.4687 13.3425 57.1275C13.0262 60.1766 12.4266 63.1896 11.5515 66.1275C17.829 64.674 21.663 62.991 23.4045 62.109C24.3923 61.6087 25.5298 61.4902 26.5995 61.776C29.666 62.5935 32.8264 63.005 36 63C53.982 63 67.5 50.3685 67.5 36C67.5 21.636 53.982 9 36 9C18.018 9 4.5 21.636 4.5 36C4.5 42.606 7.2765 48.735 12.051 53.523ZM9.8325 71.0955C8.76631 71.3069 7.69666 71.5004 6.624 71.676C5.724 71.82 5.04 70.884 5.3955 70.047C5.79506 69.1047 6.16129 68.1486 6.4935 67.1805L6.507 67.1355C7.623 63.8955 8.532 60.1695 8.865 56.7C3.3435 51.165 0 43.92 0 36C0 18.603 16.119 4.5 36 4.5C55.881 4.5 72 18.603 72 36C72 53.397 55.881 67.5 36 67.5C32.4344 67.5048 28.8836 67.0419 25.4385 66.123C23.0985 67.3065 18.063 69.462 9.8325 71.0955Z" fill="#888992"/>
</svg>
