<svg width="72" height="72" viewBox="0 0 72 72" fill="none" xmlns="http://www.w3.org/2000/svg">
<path d="M35.4159 28.588C34.6359 27.808 33.3679 27.804 32.5839 28.584L25.9999 35.172L23.4159 32.584C22.6359 31.804 21.3679 31.804 20.5879 32.584C19.8079 33.364 19.8079 34.632 20.5879 35.412L24.5879 39.412C24.9759 39.804 25.4879 40 25.9999 40C26.5119 40 27.0239 39.804 27.4159 39.416L35.4159 31.416C36.1959 30.636 36.1959 29.368 35.4159 28.588Z" fill="#888992"/>
<path d="M35.4159 44.588C34.6359 43.808 33.3679 43.804 32.5839 44.584L25.9999 51.172L23.4159 48.588C22.6359 47.808 21.3679 47.808 20.5879 48.588C19.8079 49.368 19.8079 50.636 20.5879 51.416L24.5879 55.416C24.9759 55.804 25.4879 56 25.9999 56C26.5119 56 27.0239 55.804 27.4159 55.416L35.4159 47.416C36.1959 46.636 36.1959 45.368 35.4159 44.588Z" fill="#888992"/>
<path d="M50 32H42C40.896 32 40 32.896 40 34C40 35.104 40.896 36 42 36H50C51.104 36 52 35.104 52 34C52 32.896 51.104 32 50 32Z" fill="#888992"/>
<path d="M50 48H42C40.896 48 40 48.896 40 50C40 51.104 40.896 52 42 52H50C51.104 52 52 51.104 52 50C52 48.896 51.104 48 50 48Z" fill="#888992"/>
<path d="M56 12H48V10C48 8.896 47.104 8 46 8H41.66C40.832 5.672 38.608 4 36 4C33.392 4 31.168 5.672 30.34 8H26C24.896 8 24 8.896 24 10V12H16C13.796 12 12 13.796 12 16V64C12 66.204 13.796 68 16 68H56C58.204 68 60 66.204 60 64V16C60 13.796 58.204 12 56 12ZM28 12H32C33.104 12 34 11.104 34 10C34 8.896 34.896 8 36 8C37.104 8 38 8.896 38 10C38 11.104 38.896 12 40 12H44V16H28V12ZM56 64H16V16H24V18C24 19.104 24.896 20 26 20H46C47.104 20 48 19.104 48 18V16H56V64Z" fill="#888992"/>
</svg>
