<svg width="50" height="50" viewBox="0 0 50 50" fill="none" xmlns="http://www.w3.org/2000/svg">
<path d="M18.9251 26.53V26.48H18.8751H8.15512H8.10512V26.53V29.595V29.645H8.15512H18.8751H18.9251V29.595V26.53ZM8.10512 37.25V37.3H8.15512H18.8751H18.9251V37.25V34.185V34.135H18.8751H8.15512H8.10512V34.185V37.25ZM37.2501 6.575H34.2351V0.5V0.45H34.1851H31.1201H31.0701V0.5V6.575H12.8001V0.5V0.45H12.7501H9.68512H9.63512V0.5V6.575H5.09012C3.8518 6.575 2.68415 7.06031 1.80486 7.93454L1.80476 7.93464C0.930389 8.80902 0.445117 9.97673 0.445117 11.22V40.315C0.445117 41.5533 0.930423 42.721 1.80466 43.6003L1.80476 43.6004C2.67913 44.4747 3.84685 44.96 5.09012 44.96H24.5001H24.6045L24.5391 44.8787C23.8021 43.9624 23.1946 42.9367 22.7465 41.8263L22.7339 41.795H22.7001H5.09512C4.69871 41.795 4.33122 41.6405 4.04527 41.3594C3.76474 41.0788 3.61012 40.7066 3.61012 40.31V21.985H38.9866C39.9762 22.1245 40.9261 22.3833 41.8264 22.7464L41.8951 22.7741V22.7V21.935V18.87V11.22C41.8951 9.97665 41.4098 8.81402 40.5356 7.93475C39.6611 7.05519 38.4933 6.575 37.2501 6.575ZM34.2401 14.28V9.735H37.2501C37.6468 9.735 38.0191 9.8897 38.2998 10.1704C38.5805 10.4511 38.7351 10.8234 38.7351 11.215V12.27V14.325V18.82H3.61512V14.28V12.225V11.22C3.61512 10.8233 3.76982 10.451 4.05047 10.1704C4.33113 9.8897 4.70342 9.735 5.10012 9.735H9.64512V14.28V14.33H9.69512H12.7501H12.8001V14.28V9.735H31.0751V14.28V14.33H31.1251H34.1901H34.2401V14.28ZM35.7151 31.075H35.6651V31.125V35.72V37.25V38.78V38.83H35.7151H43.3701H43.4201V38.78V35.715V35.665H43.3701H38.8251V31.125H38.7801V31.075H38.7751H38.7251H35.7151ZM37.2501 24.95C30.4675 24.95 24.9501 30.4674 24.9501 37.25C24.9501 44.0326 30.4675 49.55 37.2501 49.55C44.0327 49.55 49.5501 44.0326 49.5501 37.25C49.5501 30.4674 44.0327 24.95 37.2501 24.95ZM37.2501 46.39C32.2127 46.39 28.1101 42.2924 28.1101 37.25C28.1101 32.2077 32.2127 28.115 37.2501 28.115C42.2875 28.115 46.3901 32.2126 46.3901 37.255C46.3901 42.2973 42.2876 46.39 37.2501 46.39Z" fill="#858585" stroke="#858585" stroke-width="0.1"/>
</svg>
