<svg width="50" height="50" viewBox="0 0 50 50" fill="none" xmlns="http://www.w3.org/2000/svg">
<path d="M26 1C24.355 1 23 2.35503 23 4V15C23 16.645 24.355 18 26 18H28.1973C28.27 18.2794 28.3198 18.3708 28.3828 18.875C28.4951 19.7732 28.4564 20.8509 28.1055 21.5527C28.0293 21.7052 27.9933 21.8746 28.0009 22.0449C28.0086 22.2152 28.0597 22.3807 28.1493 22.5257C28.2389 22.6707 28.3641 22.7904 28.513 22.8734C28.6619 22.9564 28.8295 23 29 23C31.0556 23 32.4914 21.4342 33.4434 20.0742C34.1738 19.0307 34.3966 18.4243 34.582 18H43C44.645 18 46 16.645 46 15V4C46 2.35503 44.645 1 43 1H26ZM26 3H43C43.565 3 44 3.43497 44 4V15C44 15.565 43.565 16 43 16H34C33.8002 16.0002 33.6051 16.0602 33.4398 16.1723C33.2744 16.2844 33.1464 16.4434 33.0723 16.6289C33.0723 16.6289 32.6047 17.7857 31.8066 18.9258C31.3986 19.5088 30.9193 20.0266 30.4238 20.4043C30.4704 19.7714 30.4338 19.1583 30.3672 18.625C30.2295 17.5232 29.9492 16.6836 29.9492 16.6836C29.8828 16.4844 29.7553 16.3112 29.585 16.1885C29.4146 16.0659 29.2099 15.9999 29 16H26C25.435 16 25 15.565 25 15V4C25 3.43497 25.435 3 26 3ZM21 4.99414C16.7296 4.99414 13.9611 6.9099 12.8359 9.80859C11.767 12.5624 12.0561 16.0303 12.9375 19.6914C12.4652 20.1823 11.9997 20.8714 11.9941 21.9941C11.9875 23.3207 12.4415 24.3427 13.041 24.9941C13.3855 25.3685 13.7566 25.4114 14.1191 25.5742C14.1919 26.5779 14.3639 27.593 14.7266 28.4648C15.0566 29.2583 15.5128 29.8016 15.9941 30.3301C15.9955 31.6062 16.0052 32.5924 15.9941 33.8457C15.6058 34.682 14.8 35.3632 13.5801 36.0059C12.3068 36.6766 10.6775 37.2759 9.03711 38.0312C7.39668 38.7866 5.73013 39.7053 4.40625 41.1133C3.08237 42.5213 2.14506 44.4372 1.99609 46.9395L1.93359 48.0059H42.0664L42.0039 46.9395C41.8552 44.4366 40.9166 42.52 39.5898 41.1113C38.2631 39.7027 36.5919 38.7833 34.9492 38.0273C33.3065 37.2714 31.6756 36.672 30.4043 36.002C29.1856 35.3596 28.3858 34.6787 28.0059 33.8477C27.9914 32.502 28.0038 31.5109 28.0059 30.25C28.4897 29.7398 28.9542 29.2068 29.2695 28.5508C29.6902 27.6755 30.0059 26.8457 30.0059 26C30.0059 25.7332 29.8999 25.4774 29.7113 25.2887C29.5226 25.1001 29.2668 24.9941 29 24.9941C28.7332 24.9941 28.4774 25.1001 28.2887 25.2887C28.1001 25.4774 27.9941 25.7332 27.9941 26C27.9941 26.1543 27.7943 26.978 27.457 27.6797C27.1197 28.3814 26.6075 29.0448 26.416 29.1816L25.9941 29.4824V30C25.9941 31.4771 25.9719 32.498 25.9941 34.1387L25.998 34.3262L26.0684 34.502C26.6905 36.0429 28.0149 37.0141 29.4668 37.7793C30.9187 38.5445 32.5647 39.1427 34.1094 39.8535C35.6541 40.5643 37.0832 41.3821 38.127 42.4902C38.9607 43.3754 39.4804 44.5427 39.7578 45.9941H4.24023C4.51717 44.542 5.03749 43.3747 5.86914 42.4902C6.91004 41.3832 8.33476 40.5675 9.87695 39.8574C11.4191 39.1474 13.0644 38.5507 14.5176 37.7852C15.9708 37.0196 17.2977 36.0458 17.9297 34.5059L18.002 34.3281L18.0059 34.1367C18.023 32.6309 18.0059 31.6043 18.0059 30.125V29.6172L17.5957 29.3164C17.4697 29.2237 16.9344 28.5357 16.584 27.6934C16.2336 26.8511 15.9902 25.8357 16.0039 25.0176L16.0215 24.0762L15.082 23.998C15.1517 24.0037 14.7793 23.9151 14.5195 23.6328C14.2598 23.3505 14.0014 22.8973 14.0059 22.0059C14.0101 21.1575 14.3992 20.933 14.5254 20.8555L15.1582 20.4688L14.9727 19.75C14.0292 16.084 13.8489 12.751 14.709 10.5352C15.5691 8.31935 17.2704 7.00586 21 7.00586C21.2668 7.00586 21.5226 6.89989 21.7113 6.71125C21.8999 6.52261 22.0059 6.26677 22.0059 6C22.0059 5.73323 21.8999 5.47739 21.7113 5.28875C21.5226 5.10011 21.2668 4.99414 21 4.99414ZM29 6V8H36V6H29ZM38 6V8H41V6H38ZM29 11V13H32V11H29ZM34 11V13H41V11H34Z" fill="#858585"/>
</svg>
