<svg width="50" height="50" viewBox="0 0 50 50" fill="none" xmlns="http://www.w3.org/2000/svg">
<path fill-rule="evenodd" clip-rule="evenodd" d="M7.81001 44.458H7.80731C7.80836 45.9777 8.11451 47.0872 8.75261 47.7498C9.37271 48.3941 10.3635 48.6499 11.7541 48.4863L11.8269 48.481H42.2225C42.2225 33.6412 42.1901 20.3915 42.1901 5.54184H42.1928C42.1918 4.02214 41.8856 2.91261 41.2475 2.25003C40.6274 1.6057 39.6367 1.34998 38.2459 1.51354L38.1733 1.51889H7.77761C7.77761 16.3356 7.81001 29.6138 7.81001 44.458ZM20.7157 18.4884V6.66081H26.5242C27.6007 6.66081 28.4252 6.75722 28.9925 6.9527C29.5624 7.14536 30.0218 7.50613 30.3712 8.02905C30.7204 8.55496 30.8938 9.19631 30.8938 9.95073C30.8938 10.6061 30.7577 11.1719 30.4919 11.6496C29.9566 12.6114 29.3074 12.9901 28.3087 13.2293L30.5603 17.145L32.5009 13.5053H36.2978L32.7923 19.2347L36.6287 25.3329H32.7056L30.4921 21.5335L28.2627 25.3329H24.3711L28.26 19.1686C27.7777 18.3577 25.7989 14.2822 25.3767 13.9704C25.1268 13.7857 24.8383 13.6978 24.5208 13.6978H24.2136V18.4883H20.7159L20.7157 18.4884ZM24.2134 11.4679H25.6866C25.8441 11.4679 26.154 11.4129 26.6107 11.3054C26.8419 11.2587 27.031 11.1348 27.1753 10.9338C27.3223 10.7328 27.3958 10.5043 27.3958 10.2456C27.3958 9.86297 27.2803 9.56825 27.0492 9.36459C26.818 9.15809 26.3848 9.05618 25.7467 9.05618H24.2133V11.4679H24.2134ZM43.5518 42.7328H48.2686C48.7825 42.7328 48.3559 42.7354 48.5108 42.7345C49.2034 42.7306 49.5143 42.7287 49.8022 43.1201C50.024 43.4216 50.0111 43.6897 49.9877 44.1766C49.9802 44.3347 49.9706 44.533 49.9706 44.8394C49.9706 47.2907 49.1641 48.6893 47.8028 49.4153C46.6012 50.056 45.0016 50.104 43.1698 49.8745H11.8512C10.0615 50.0755 8.72831 49.6811 7.81766 48.7351C6.91691 47.799 6.48431 46.3597 6.48296 44.458H6.48041C6.48041 31.5393 6.44816 20.2009 6.44816 7.26724H1.73141C1.21751 7.26724 1.64411 7.26457 1.48916 7.26551C0.796613 7.26944 0.485663 7.27133 0.197814 6.87989C-0.0240363 6.5784 -0.0111363 6.31026 0.0122637 5.82335C0.0197637 5.66529 0.0293637 5.46698 0.0293637 5.16062C0.0293637 2.70926 0.835763 1.31066 2.19716 0.584705C3.39866 -0.0560107 4.99841 -0.103978 6.83021 0.125478H38.1488C39.9385 -0.0755121 41.2718 0.31892 42.1823 1.2649C43.0832 2.20096 43.5157 3.64029 43.517 5.542H43.5196C43.5196 18.4321 43.5518 29.8104 43.5518 42.7328ZM6.44816 5.87352V1.47831C4.95656 1.30877 3.68726 1.35249 2.79956 1.82588C1.89461 2.30838 1.35851 3.32104 1.35851 5.16062C1.35851 5.42499 1.34621 5.68307 1.33631 5.88877C1.32866 6.04825 1.16876 5.92463 1.24661 6.03047C1.35776 6.18161 1.24361 5.87839 1.48421 5.87714C1.78871 5.87541 1.39481 5.87352 1.73156 5.87352H6.44831H6.44816ZM43.552 44.1263V48.5215C45.0434 48.6911 46.3129 48.6473 47.2006 48.174C48.1054 47.6915 48.6416 46.6788 48.6416 44.8392C48.6416 44.5749 48.6539 44.3168 48.6638 44.1111C48.6715 43.9516 48.8314 44.0752 48.7535 43.9694C48.6424 43.8182 48.7565 44.1214 48.5159 44.1227C48.2114 44.1244 48.6053 44.1263 48.2686 44.1263H43.5518H43.552ZM12.7626 25.9883C12.3934 25.9883 12.094 25.6775 12.094 25.2944C12.094 24.9111 12.3934 24.6005 12.7626 24.6005H19.3012C19.6704 24.6005 19.9698 24.9113 19.9698 25.2944C19.9698 25.6775 19.6704 25.9883 19.3012 25.9883H12.7626ZM12.7626 33.1272C12.3955 33.1272 12.0979 32.8153 12.0979 32.4304C12.0979 32.0455 12.3955 31.7335 12.7626 31.7335H31.5737C31.9408 31.7335 32.2384 32.0455 32.2384 32.4304C32.2384 32.815 31.9408 33.1272 31.5737 33.1272H12.7626ZM12.7626 40.2668C12.3973 40.2668 12.1012 39.9532 12.1012 39.5663C12.1012 39.1794 12.3973 38.8658 12.7626 38.8658H22.4991C22.8643 38.8658 23.1604 39.1794 23.1604 39.5663C23.1604 39.9532 22.8643 40.2668 22.4991 40.2668H12.7626Z" fill="#858585"/>
</svg>
