<svg width="50" height="51" viewBox="0 0 50 51" fill="none" xmlns="http://www.w3.org/2000/svg">
<path d="M44.8438 32.5459L40.625 28.3271V21.1396C40.62 17.2596 39.1816 13.5182 36.5859 10.6342C33.9903 7.75019 30.4206 5.92692 26.5625 5.51465V2.38965H23.4375V5.51465C19.5901 5.95325 16.0361 7.78432 13.4457 10.6626C10.8552 13.5409 9.40734 17.2675 9.37503 21.1396V28.3271L5.15628 32.5459C5.00378 32.6835 4.8829 32.8526 4.80198 33.0414C4.72106 33.2302 4.68202 33.4343 4.68753 33.6396V38.3271C4.67372 38.5359 4.70467 38.7452 4.77831 38.941C4.85195 39.1369 4.96657 39.3147 5.11451 39.4627C5.26245 39.6106 5.44029 39.7252 5.63613 39.7989C5.83196 39.8725 6.04127 39.9035 6.25003 39.8896H17.1875C17.1875 41.9617 18.0106 43.9488 19.4758 45.4139C20.9409 46.879 22.928 47.7021 25 47.7021C27.072 47.7021 29.0592 46.879 30.5243 45.4139C31.9894 43.9488 32.8125 41.9617 32.8125 39.8896H43.75C43.9588 39.9035 44.1681 39.8725 44.3639 39.7989C44.5598 39.7252 44.7376 39.6106 44.8855 39.4627C45.0335 39.3147 45.1481 39.1369 45.2218 38.941C45.2954 38.7452 45.3263 38.5359 45.3125 38.3271V33.6396C45.318 33.4343 45.279 33.2302 45.1981 33.0414C45.1172 32.8526 44.9963 32.6835 44.8438 32.5459ZM25 44.5771C23.7568 44.5771 22.5645 44.0833 21.6855 43.2042C20.8064 42.3251 20.3125 41.1329 20.3125 39.8896H29.6875C29.6875 41.1329 29.1937 42.3251 28.3146 43.2042C27.4355 44.0833 26.2432 44.5771 25 44.5771ZM42.1875 36.7646H7.81253V34.2646L12.0313 30.0459C12.1838 29.9083 12.3047 29.7392 12.3856 29.5504C12.4665 29.3616 12.5055 29.1575 12.5 28.9521V21.1396C12.5 17.8244 13.817 14.645 16.1612 12.3008C18.5054 9.95661 21.6848 8.63965 25 8.63965C28.3152 8.63965 31.4947 9.95661 33.8389 12.3008C36.1831 14.645 37.5 17.8244 37.5 21.1396V28.9521C37.4945 29.1575 37.5336 29.3616 37.6145 29.5504C37.6954 29.7392 37.8163 29.9083 37.9688 30.0459L42.1875 34.2646V36.7646Z" fill="black"/>
</svg>
