<svg width="75" height="75" viewBox="0 0 75 75" fill="none" xmlns="http://www.w3.org/2000/svg">
<path d="M37.5 9.375C22.0313 9.375 9.375 22.0313 9.375 37.5C9.375 52.9688 22.0313 65.625 37.5 65.625C52.9688 65.625 65.625 52.9688 65.625 37.5C65.625 22.0313 52.9688 9.375 37.5 9.375ZM37.5 15.625C42.3438 15.625 46.875 17.3438 50.625 20L20 50.625C17.3438 46.875 15.625 42.3438 15.625 37.5C15.625 25.4688 25.4688 15.625 37.5 15.625ZM37.5 59.375C32.6562 59.375 28.125 57.6562 24.375 55L55 24.375C57.6562 28.125 59.375 32.6562 59.375 37.5C59.375 49.5312 49.5312 59.375 37.5 59.375Z" fill="#D50000"/>
</svg>
