<svg width="128" height="128" viewBox="0 0 128 128" fill="none" xmlns="http://www.w3.org/2000/svg">
<path d="M127.169 63.5843C127.169 28.5244 98.6467 0 63.5843 0C28.5219 0 0 28.5244 0 63.5843C0 81.513 7.48815 97.7007 19.4655 109.271C19.7459 109.636 20.078 109.932 20.4668 110.181C31.8125 120.688 46.9373 127.169 63.5843 127.169C80.2313 127.169 95.356 120.688 106.702 110.181C107.091 109.932 107.423 109.636 107.703 109.271C119.68 97.7007 127.169 81.513 127.169 63.5843ZM63.5843 7.94804C94.2639 7.94804 119.221 32.9072 119.221 63.5843C119.221 76.5923 114.699 88.5454 107.191 98.0303C103.744 86.9145 93.904 78.2126 80.5486 74.2085C87.8268 68.9412 92.5874 60.4075 92.5874 50.7645C92.5874 34.7934 79.5787 21.8002 63.5843 21.8002C47.5899 21.8002 34.5812 34.7934 34.5812 50.7645C34.5812 60.4075 39.3417 68.9412 46.62 74.2085C33.2646 78.2126 23.4243 86.9145 19.9775 98.0303C12.4693 88.5454 7.94804 76.5923 7.94804 63.5843C7.94804 32.9072 32.9047 7.94804 63.5843 7.94804ZM42.5292 50.7645C42.5292 39.1762 51.9727 29.7482 63.5843 29.7482C75.1959 29.7482 84.6393 39.1762 84.6393 50.7645C84.6393 62.3528 75.1959 71.7807 63.5843 71.7807C51.9727 71.7807 42.5292 62.3528 42.5292 50.7645ZM26.6564 105.083C27.8511 90.5124 43.3028 79.7287 63.5843 79.7287C83.8657 79.7287 99.3175 90.5124 100.512 105.083C90.677 113.845 77.7621 119.221 63.5843 119.221C49.4065 119.221 36.4916 113.845 26.6564 105.083Z" fill="#1D1D1B"/>
</svg>
