<svg width="75" height="75" viewBox="0 0 75 75" fill="none" xmlns="http://www.w3.org/2000/svg">
<path d="M51.5953 3.16563V0H23.4047V3.16563H6.25V75H68.75V3.16563H51.5953ZM62.5 65.625H12.5V9.375H23.4047V14.0625H51.5953V9.375H62.5V65.625Z" fill="#241F20"/>
<path d="M56.3092 26.8447L48.3717 34.7822L48.3857 34.7932L37.5654 45.6135L28.267 36.3135L25.2513 39.3322L35.9107 49.9916L35.9013 50.001L37.5342 51.6338L37.5467 51.6244L37.556 51.6338L38.2857 50.9072L38.292 50.9135L51.3998 37.8072L59.3342 29.8697L56.3092 26.8447Z" fill="#241F20"/>
<path d="M27.9796 45.2584L18.6812 35.96L15.6655 38.9725L26.3249 49.6365L26.3155 49.6443L27.9499 51.2771L27.9608 51.2678L27.9687 51.2771L28.6968 50.5521L28.7046 50.5568L31.0077 48.2537L27.9952 45.2412L27.9796 45.2584Z" fill="#241F20"/>
<path d="M37.467 41.7965L41.8123 37.4527L49.7483 29.5168L46.7217 26.4902L38.7858 34.4277L38.7967 34.4371L34.4545 38.7855L37.467 41.7965Z" fill="#241F20"/>
</svg>
