<svg width="100" height="100" viewBox="0 0 100 100" fill="none" xmlns="http://www.w3.org/2000/svg">
<path d="M9.04315 86.8554H90.9377C91.6994 86.8554 92.3049 86.2499 92.3049 85.4882V41.6014C92.3049 40.8397 91.6994 40.2343 90.9377 40.2343H85.2736L77.9885 15.3905C77.7541 14.5897 77.2267 13.9257 76.4846 13.535C75.7424 13.1444 74.9025 13.0468 74.1017 13.2811L14.7267 30.703C13.0666 31.1913 12.1291 32.9296 12.5978 34.5897L14.258 40.2343H9.04315C8.28143 40.2343 7.67596 40.8397 7.67596 41.6014V85.4882C7.67596 86.2304 8.30096 86.8554 9.04315 86.8554ZM15.2541 33.8085C15.1955 33.5936 15.3127 33.3788 15.5275 33.3202L74.9025 15.8983C75.0392 15.8593 75.1369 15.8983 75.1955 15.9374C75.2541 15.9764 75.3517 16.035 75.3908 16.1718L82.4416 40.2343H17.1291L15.2541 33.8085ZM10.4103 42.9686H16.0939H84.258H89.5705V84.121H10.4103V42.9686Z" fill="black" stroke="black" stroke-width="1.2"/>
<path d="M84.3166 55.0781H82.7541C80.7424 55.0781 78.9455 53.9648 78.0471 52.168C77.676 51.4258 77.4807 50.6445 77.4807 49.8047V48.2422C77.4807 47.4805 76.8752 46.875 76.1135 46.875H23.8869C23.1252 46.875 22.5197 47.4805 22.5197 48.2422V49.8047C22.5197 51.7383 21.465 53.5156 19.7658 54.4336C19.0041 54.8438 18.1252 55.0781 17.2463 55.0781H15.6838C14.9221 55.0781 14.3166 55.6836 14.3166 56.4453V70.6445C14.3166 71.4062 14.9221 72.0117 15.6838 72.0117H17.2463C20.1564 72.0117 22.5197 74.375 22.5197 77.2852V78.8477C22.5197 79.6094 23.1252 80.2148 23.8869 80.2148H76.0939C76.8557 80.2148 77.4611 79.6094 77.4611 78.8477V77.2852C77.4611 74.375 79.8244 72.0117 82.7346 72.0117H84.2971C85.0588 72.0117 85.6642 71.4062 85.6642 70.6445V56.4453C85.6838 55.6836 85.0588 55.0781 84.3166 55.0781ZM82.9494 69.2773H82.7541C78.34 69.2773 74.7463 72.8711 74.7463 77.2852V77.4805H25.2541V77.2852C25.2541 72.8711 21.6603 69.2773 17.2463 69.2773H17.051V57.8125H17.2463C18.5744 57.8125 19.9025 57.4805 21.0744 56.8359C23.6525 55.4297 25.2541 52.7344 25.2541 49.8047V49.6094H74.7267V49.8047C74.7267 51.0352 75.0197 52.2852 75.5666 53.3789C76.9338 56.1133 79.6877 57.8125 82.7346 57.8125H82.9299V69.2773H82.9494Z" fill="black" stroke="black" stroke-width="1.2"/>
<path d="M30.4885 58.418C27.6564 58.418 25.3517 60.7227 25.3517 63.5547C25.3517 65.4883 26.4064 67.2266 28.1252 68.1055C28.8478 68.4766 29.6682 68.6914 30.4885 68.6914C32.2853 68.6914 33.965 67.7344 34.883 66.1914C34.9025 66.1719 34.9025 66.1523 34.9221 66.1328C35.3713 65.3516 35.6057 64.4727 35.6057 63.5742C35.6057 60.7227 33.3205 58.418 30.4885 58.418ZM32.5783 64.6875C32.5588 64.707 32.5588 64.7266 32.5392 64.7461C32.1096 65.4883 31.3283 65.9375 30.4689 65.9375C30.0783 65.9375 29.7072 65.8398 29.3752 65.6641C28.5744 65.2539 28.0861 64.4336 28.0861 63.5352C28.0861 62.207 29.1603 61.1328 30.4885 61.1328C31.8166 61.1328 32.8908 62.207 32.8908 63.5352C32.8713 63.9453 32.7736 64.3359 32.5783 64.6875Z" fill="black" stroke="black" stroke-width="1.2"/>
<path d="M69.8245 58.418C66.9925 58.418 64.6878 60.7227 64.6878 63.5547C64.6878 66.3867 66.9925 68.6914 69.8245 68.6914C72.6566 68.6914 74.9612 66.3867 74.9612 63.5547C74.9612 60.7227 72.6566 58.418 69.8245 58.418ZM69.8245 65.9375C68.4964 65.9375 67.4222 64.8633 67.4222 63.5352C67.4222 62.207 68.4964 61.1328 69.8245 61.1328C71.1526 61.1328 72.2269 62.207 72.2269 63.5352C72.2269 64.8633 71.1526 65.9375 69.8245 65.9375Z" fill="black" stroke="black" stroke-width="1.2"/>
<path d="M51.1136 61.9336V57.5977C51.8754 57.7734 52.6566 58.125 53.4379 58.5937C53.6722 58.7305 53.8871 58.7891 54.1215 58.7891C54.8246 58.7891 55.391 58.2422 55.391 57.5391C55.391 56.9922 55.0785 56.6602 54.7074 56.4453C53.6722 55.7812 52.5394 55.3516 51.1918 55.1953V54.707C51.1918 54.1602 50.7621 53.7305 50.2152 53.7305C49.6683 53.7305 49.2191 54.1602 49.2191 54.707V55.1758C46.3871 55.4102 44.473 57.0703 44.473 59.4922C44.473 60.5273 44.7269 61.3477 45.2543 62.0117C46.016 62.9883 47.3636 63.6328 49.3168 64.1406V68.5938C48.0668 68.3594 47.0316 67.8516 45.9574 67.0703C45.7621 66.9141 45.4886 66.8164 45.2152 66.8164C44.5121 66.8164 43.9652 67.3633 43.9652 68.0664C43.9652 68.5352 44.1996 68.9062 44.5707 69.1602C45.9574 70.1367 47.5199 70.7422 49.2191 70.918V72.3242C49.2191 72.8711 49.6683 73.3008 50.2152 73.3008C50.7621 73.3008 51.1918 72.8711 51.1918 72.3242V70.957C54.0629 70.6836 56.016 69.043 56.016 66.543C56.016 64.1797 54.5511 62.793 51.1136 61.9336ZM49.3168 61.4648C48.9652 61.3477 48.6722 61.2305 48.4183 61.1133C47.4222 60.6445 47.1488 60.1172 47.1488 59.3555C47.1488 58.3594 47.8715 57.5977 49.3168 57.4609V61.4648ZM51.1136 68.7305V64.6094C52.8519 65.1562 53.3597 65.7617 53.3597 66.7578C53.3402 67.832 52.559 68.5547 51.1136 68.7305Z" fill="black" stroke="black" stroke-width="1.2"/>
</svg>
