<svg width="75" height="75" viewBox="0 0 75 75" fill="none" xmlns="http://www.w3.org/2000/svg">
<path d="M58.5888 75C54.0522 75 50.1863 73.4009 46.9912 70.2026C43.7961 67.0044 42.1985 63.1348 42.1985 58.5938C42.1985 54.0527 43.7961 50.1831 46.9912 46.9849C50.1863 43.7866 54.0522 42.1875 58.5888 42.1875C63.1254 42.1875 66.9912 43.7866 70.1863 46.9849C73.3815 50.1831 74.979 54.0527 74.979 58.5938C74.979 63.1348 73.3815 67.0044 70.1863 70.2026C66.9912 73.4009 63.1254 75 58.5888 75ZM67.9546 56.25H60.9302V49.2188C60.9302 48.584 60.6985 48.0347 60.2351 47.5708C59.7717 47.1069 59.2229 46.875 58.5888 46.875C57.9546 46.875 57.4058 47.1069 56.9424 47.5708C56.479 48.0347 56.2473 48.584 56.2473 49.2188V58.5938C56.2473 59.1797 56.4302 59.6802 56.7961 60.0952C57.1619 60.5103 57.6132 60.7666 58.1497 60.8643C58.2473 60.9131 58.3936 60.9375 58.5888 60.9375H67.9546C68.5888 60.9375 69.1376 60.7056 69.601 60.2417C70.0644 59.7778 70.2961 59.2285 70.2961 58.5938C70.2961 57.959 70.0644 57.4097 69.601 56.9458C69.1376 56.4819 68.5888 56.25 67.9546 56.25ZM35.1741 60.9375H21.1254C20.4912 60.9375 19.9424 60.7056 19.479 60.2417C19.0156 59.7778 18.7839 59.2285 18.7839 58.5938C18.7839 57.959 19.0156 57.4097 19.479 56.9458C19.9424 56.4819 20.4912 56.25 21.1254 56.25H35.1741C35.8083 56.25 36.3571 56.4819 36.8205 56.9458C37.2839 57.4097 37.5156 57.959 37.5156 58.5938C37.5156 59.2285 37.2839 59.7778 36.8205 60.2417C36.3571 60.7056 35.8083 60.9375 35.1741 60.9375ZM21.1254 46.875H35.1741C35.8083 46.875 36.3571 47.1069 36.8205 47.5708C37.2839 48.0347 37.5156 48.584 37.5156 49.2188C37.5156 49.8535 37.2839 50.4028 36.8205 50.8667C36.3571 51.3306 35.8083 51.5625 35.1741 51.5625H21.1254C20.4912 51.5625 19.9424 51.3306 19.479 50.8667C19.0156 50.4028 18.7839 49.8535 18.7839 49.2188C18.7839 48.584 19.0156 48.0347 19.479 47.5708C19.9424 47.1069 20.4912 46.875 21.1254 46.875ZM44.54 42.1875H21.1254C20.4912 42.1875 19.9424 41.9556 19.479 41.4917C19.0156 41.0278 18.7839 40.4785 18.7839 39.8438C18.7839 39.209 19.0156 38.6597 19.479 38.1958C19.9424 37.7319 20.4912 37.5 21.1254 37.5H44.54C45.1741 37.5 45.7229 37.7319 46.1863 38.1958C46.6497 38.6597 46.8815 39.209 46.8815 39.8438C46.8815 40.4785 46.6497 41.0278 46.1863 41.4917C45.7229 41.9556 45.1741 42.1875 44.54 42.1875ZM53.9058 32.8125H21.1254C20.4912 32.8125 19.9424 32.5806 19.479 32.1167C19.0156 31.6528 18.7839 31.1035 18.7839 30.4688C18.7839 29.834 19.0156 29.2847 19.479 28.8208C19.9424 28.3569 20.4912 28.125 21.1254 28.125H53.9058C54.54 28.125 55.0888 28.3569 55.5522 28.8208C56.0156 29.2847 56.2473 29.834 56.2473 30.4688C56.2473 31.1035 56.0156 31.6528 55.5522 32.1167C55.0888 32.5806 54.54 32.8125 53.9058 32.8125ZM53.9058 14.0625H21.1254C20.4912 14.0625 19.9424 13.8306 19.479 13.3667C19.0156 12.9028 18.7839 12.3535 18.7839 11.7188C18.7839 11.084 19.0156 10.5347 19.479 10.0708C19.9424 9.60693 20.4912 9.375 21.1254 9.375H53.9058C54.54 9.375 55.0888 9.60693 55.5522 10.0708C56.0156 10.5347 56.2473 11.084 56.2473 11.7188C56.2473 12.3535 56.0156 12.9028 55.5522 13.3667C55.0888 13.8306 54.54 14.0625 53.9058 14.0625ZM53.9058 23.4375H21.1254C20.4912 23.4375 19.9424 23.2056 19.479 22.7417C19.0156 22.2778 18.7839 21.7285 18.7839 21.0938C18.7839 20.459 19.0156 19.9097 19.479 19.4458C19.9424 18.9819 20.4912 18.75 21.1254 18.75H53.9058C54.54 18.75 55.0888 18.9819 55.5522 19.4458C56.0156 19.9097 56.2473 20.459 56.2473 21.0938C56.2473 21.7285 56.0156 22.2778 55.5522 22.7417C55.0888 23.2056 54.54 23.4375 53.9058 23.4375ZM60.9302 7.03125C60.9302 6.39648 60.6985 5.84717 60.2351 5.3833C59.7717 4.91943 59.2229 4.6875 58.5888 4.6875H11.7595C11.1254 4.6875 10.5766 4.91943 10.1132 5.3833C9.64975 5.84717 9.41804 6.39648 9.41804 7.03125V9.375C10.7351 9.375 11.8449 9.82666 12.7473 10.73C13.6497 11.6333 14.101 12.7441 14.101 14.0625C14.101 15.3809 13.6497 16.4917 12.7473 17.395C11.8449 18.2983 10.7351 18.75 9.41804 18.75V23.4375C10.7351 23.4375 11.8449 23.8892 12.7473 24.7925C13.6497 25.6958 14.101 26.8066 14.101 28.125C14.101 29.4434 13.6497 30.5542 12.7473 31.4575C11.8449 32.3608 10.7351 32.8125 9.41804 32.8125V37.5C10.7351 37.5 11.8449 37.9517 12.7473 38.855C13.6497 39.7583 14.101 40.8569 14.101 42.1509C14.101 43.4448 13.6497 44.5557 12.7473 45.4834C11.8449 46.4111 10.7351 46.875 9.41804 46.875V51.5625C10.7351 51.5625 11.8449 52.0142 12.7473 52.9175C13.6497 53.8208 14.101 54.9194 14.101 56.2134C14.101 57.5073 13.6497 58.6182 12.7473 59.5459C11.8449 60.4736 10.7351 60.9375 9.41804 60.9375V63.2812C9.41804 63.916 9.64975 64.4653 10.1132 64.9292C10.5766 65.3931 11.1254 65.625 11.7595 65.625H42.1985V70.3125H9.41804C8.14975 70.3125 7.05219 69.8486 6.12536 68.9209C5.19853 67.9932 4.73511 66.8945 4.73511 65.625V60.9375C3.46682 60.9375 2.36926 60.4736 1.44243 59.5459C0.5156 58.6182 0.0521851 57.5073 0.0521851 56.2134C0.0521851 54.9194 0.5156 53.8208 1.44243 52.9175C2.36926 52.0142 3.46682 51.5625 4.73511 51.5625V46.875C3.46682 46.875 2.36926 46.4111 1.44243 45.4834C0.5156 44.5557 0.0521851 43.4448 0.0521851 42.1509C0.0521851 40.8569 0.5156 39.7583 1.44243 38.855C2.36926 37.9517 3.46682 37.5 4.73511 37.5V32.8125C3.46682 32.8125 2.36926 32.3608 1.44243 31.4575C0.5156 30.5542 0.0521851 29.4434 0.0521851 28.125C0.0521851 26.8066 0.5156 25.6958 1.44243 24.7925C2.36926 23.8892 3.46682 23.4375 4.73511 23.4375V18.75C3.46682 18.75 2.36926 18.2983 1.44243 17.395C0.5156 16.4917 0.0521851 15.3809 0.0521851 14.0625C0.0521851 12.7441 0.5156 11.6333 1.44243 10.73C2.36926 9.82666 3.46682 9.375 4.73511 9.375V4.6875C4.73511 3.36914 5.19853 2.2583 6.12536 1.35498C7.05219 0.45166 8.14975 0 9.41804 0H60.9302C62.1985 0 63.2961 0.45166 64.2229 1.35498C65.1497 2.2583 65.6132 3.36914 65.6132 4.6875V37.5H60.9302V7.03125Z" fill="black"/>
</svg>
