<svg width="100" height="100" viewBox="0 0 100 100" fill="none" xmlns="http://www.w3.org/2000/svg">
<path d="M50 6.25C25.8398 6.25 6.25 25.8398 6.25 50C6.25 74.1602 25.8398 93.75 50 93.75C74.1602 93.75 93.75 74.1602 93.75 50C93.75 25.8398 74.1602 6.25 50 6.25ZM50 86.3281C29.9414 86.3281 13.6719 70.0586 13.6719 50C13.6719 29.9414 29.9414 13.6719 50 13.6719C70.0586 13.6719 86.3281 29.9414 86.3281 50C86.3281 70.0586 70.0586 86.3281 50 86.3281Z" fill="black"/>
<path d="M67.0605 62.3633L53.1348 52.2949V28.125C53.1348 27.6953 52.7832 27.3438 52.3535 27.3438H47.6562C47.2266 27.3438 46.875 27.6953 46.875 28.125V55.0195C46.875 55.2734 46.9922 55.5078 47.1973 55.6543L63.3496 67.4316C63.7012 67.6855 64.1894 67.6074 64.4434 67.2656L67.2363 63.457C67.4902 63.0957 67.4121 62.6074 67.0605 62.3633Z" fill="black"/>
</svg>
