<svg width="75" height="75" viewBox="0 0 75 75" fill="none" xmlns="http://www.w3.org/2000/svg">
<path d="M53.125 30.6797V25C53.125 19.8203 48.9297 15.625 43.75 15.625H9.375C4.19531 15.625 0 19.8203 0 25V50C0 55.1797 4.19531 59.375 9.375 59.375H43.75C48.9297 59.375 53.125 55.1797 53.125 50V44.4609L75 56.6406V18.75L53.125 30.6797ZM46.875 50C46.875 51.7266 45.4766 53.125 43.75 53.125H9.375C7.64844 53.125 6.25 51.7266 6.25 50V25C6.25 23.2734 7.64844 21.875 9.375 21.875H43.75C45.4766 21.875 46.875 23.2734 46.875 25V50ZM68.75 46.0086L53.5703 37.5555L68.75 29.282V46.0086Z" fill="#4FCE5D"/>
</svg>
